<svg width="26" height="26" viewBox="0 0 26 26" fill="none" xmlns="http://www.w3.org/2000/svg">
<g clip-path="url(#clip0_203_6)">
<path fill-rule="evenodd" clip-rule="evenodd" d="M0 7.22582C0 6.4261 0.640939 5.7778 1.44418 5.7778H6.50335C6.90039 5.7778 7.36599 5.49025 7.54278 5.13667L8.34611 3.53005C8.52315 3.17596 8.99586 2.88892 9.37593 2.88892H16.6241C17.0158 2.88892 17.4771 3.17647 17.6539 3.53005L18.4572 5.13667C18.6343 5.49076 19.0881 5.7778 19.4966 5.7778H24.5558C25.3534 5.7778 26 6.43612 26 7.22582V21.6631C26 22.4628 25.3573 23.1111 24.5651 23.1111H1.43492C0.642444 23.1111 0 22.4528 0 21.6631V7.22582ZM13 20.2222C16.191 20.2222 18.7778 17.6354 18.7778 14.4445C18.7778 11.2535 16.191 8.66669 13 8.66669C9.80902 8.66669 7.22222 11.2535 7.22222 14.4445C7.22222 17.6354 9.80902 20.2222 13 20.2222ZM13 18.7778C15.3932 18.7778 17.3333 16.8377 17.3333 14.4445C17.3333 12.0512 15.3932 10.1111 13 10.1111C10.6068 10.1111 8.66667 12.0512 8.66667 14.4445C8.66667 16.8377 10.6068 18.7778 13 18.7778ZM21.6667 13C22.4644 13 23.1111 12.3533 23.1111 11.5556C23.1111 10.7578 22.4644 10.1111 21.6667 10.1111C20.8689 10.1111 20.2222 10.7578 20.2222 11.5556C20.2222 12.3533 20.8689 13 21.6667 13ZM2.88889 5.05558C2.88889 4.65671 3.19807 4.33336 3.6179 4.33336H5.04877C5.45138 4.33336 5.77778 4.66838 5.77778 5.05558V5.7778H2.88889V5.05558Z" fill="#121113"/>
</g>
<defs>
<clipPath id="clip0_203_6">
<rect width="26" height="26" fill="white"/>
</clipPath>
</defs>
</svg>
