<?xml version="1.0" encoding="UTF-8"?>
<svg id="Calque_2" data-name="Calque 2" xmlns="http://www.w3.org/2000/svg" viewBox="0 0 497.23 497.23">
  <defs>
    <style>
      .cls-1, .cls-2 {
        fill: #000;
      }

      .cls-1, .cls-3, .cls-4 {
        stroke-width: 0px;
      }

      .cls-2 {
        stroke: #1d1d1b;
        stroke-miterlimit: 10;
      }

      .cls-3 {
        fill: #1d1d1b;
      }

      .cls-4 {
        fill: #fff;
      }
    </style>
  </defs>
  <g id="Calque_5" data-name="Calque 5">
    <path class="cls-2" d="M206.09,196.39s40.96-127.18,117.6-185.21c0,0,18.45,102.56-12.42,210.89-1,1.2,135.74,48.52,176.52,116.66,0,0-119.13,17.42-213.28-13.16-1.37.7-36.72,83.55-105.44,158.19,0,0-4.74-125.11,13.07-190.71.41.14-90.31-37.95-166.92-108.95,0,0,122.18-6.18,190.88,12.29Z"/>
    <g>
      <path class="cls-4" d="M239.91,483.72c-10.93-31.37-39.63-118.2-42.39-172.06v.04c-.1-1.9-1.39-4.47-4.8-4.79-9.77-.91-94.6-9.71-179.44-46.2,30.65-11.05,115.85-40.1,172.23-43.12l4.75-.25-.02-4.76c0-1.28.04-125.09,48.58-202.58,11.54,24.06,45.57,102.18,49.34,193.43l-.54,1.36,1.34,2.17c1.47,2.36,1.9,2.39,12.7,3.21,15.52,1.17,51.87,3.9,89.96,11.78,42.63,8.81,74.96,21.31,96.26,37.21-25.55,11.67-115.2,49.76-197.44,49.94h-2.06s-1.46,1.46-1.46,1.46c-1.34,1.34-1.41,1.79-2.48,9.2-8.71,60.15-23.67,115.24-44.5,163.97Z"/>
      <path class="cls-3" d="M238.29,20.68c4.62,10.21,10.81,24.93,17.08,42.97,11.34,32.61,25.28,83.03,27.74,138.93l-1.08,2.73,2.68,4.3c2.81,4.51,5.45,4.71,16.56,5.55,15.42,1.16,51.55,3.88,89.33,11.69,37.36,7.72,66.56,18.25,87.12,31.38-32.68,14.27-113.07,45.71-187.3,45.87h-4.13s-2.92,2.93-2.92,2.93c-2.51,2.52-2.75,4.15-3.89,12.01-1.53,10.55-5.11,35.24-12.63,66.44-7.15,29.65-16.03,57.83-26.5,84.08-12.68-37.68-35.41-110.91-37.84-158.15h0c-.24-4.35-3.42-8.92-9.33-9.47-9.23-.86-85.99-8.82-165.97-40.85,36.9-12.82,109.11-35.85,158.56-38.5l9.5-.51-.04-9.52c0-.33-.06-33.38,6.47-75.44,5.23-33.65,15.73-79.3,36.58-116.44M239.41,0c-54.79,78.99-54.18,212.6-54.18,212.6C114.2,216.4,0,260.28,0,260.28c94.89,43.65,192.96,51.64,192.52,51.64,3.48,67.88,46.89,185.31,46.89,185.31,42.1-92.31,49.93-182.05,51.02-183.14,98.99-.22,206.8-53.82,206.8-53.82-59.94-52.08-204.62-54.53-204.04-55.98C288.84,91.74,239.41,0,239.41,0h0Z"/>
    </g>
    <path class="cls-2" d="M264.34,183.96s122.64-53.03,216.79-33.65c0,0-64.96,81.48-166.77,129.67-1.56.04,52.99,134.06,28.63,209.64,0,0-91.62-78.1-130.7-169.06-1.43-.57-87.04,27.46-188.46,24.99,0,0,90.96-86.03,152.02-115.88.17.4-30.99-92.93-28.1-197.34,0,0,85.19,87.8,116.58,151.64Z"/>
    <g>
      <path class="cls-4" d="M85.29,417.11c13.86-29.49,53.57-110.28,91.29-152.27,1.78-1.98,1.69-5.02-.2-6.89-.91-.9-88.43-88.48-108.9-177.59,25.27,8.89,105.08,40.27,172.44,102.61h0c.92.84,2.14,1.35,3.43,1.35,2.15,0,2.3-.13,10.1-6.84,11.8-10.15,39.43-33.92,71.94-55.29,36.38-23.92,68.08-37.93,94.38-41.76-9.81,26.32-46.27,116.64-104.3,174.93-.93.94-1.46,2.21-1.46,3.53,0,1.9.27,2.25,4.75,8.25,36.37,48.7,64.75,98.23,84.47,147.41-29.91-14.46-111.6-55.56-151.64-91.69-.89-.8-2.04-1.26-3.24-1.29-.04,0-.08,0-.12,0-1.8,0-2.91.92-3.39,1.32-7.55,6.26-73.68,60-159.56,94.22Z"/>
      <path class="cls-3" d="M411.95,86.94c-4.61,11.79-11.93,29.36-21.77,49.36-16.35,33.27-43.21,80.32-78.25,115.52-1.87,1.87-2.91,4.41-2.91,7.06,0,3.56.99,4.88,5.74,11.25,6.38,8.54,21.31,28.53,38.05,55.91,15.91,26.02,29.56,52.23,40.72,78.19-35.56-17.65-103.29-53.29-138.46-84.97-1.67-1.56-3.84-2.51-6.13-2.67-.24-.02-.48-.03-.72-.03-2.38,0-4.58.83-6.57,2.48-7.14,5.91-67.04,54.57-146.24,88.47,17.03-35.16,51.8-102.5,84.89-139.34,3.56-3.97,3.39-10.03-.4-13.79-.87-.86-81.58-81.58-105.24-166.12,10.49,3.95,25.27,9.99,42.47,18.31,31.47,15.23,77.73,41.48,119.4,80.05h0c1.82,1.68,4.25,2.68,6.82,2.68,4.01,0,5.07-.92,13.36-8.05,11.73-10.09,39.19-33.71,71.43-54.9,31.89-20.96,59.99-34.17,83.81-39.42M60.84,72.86c17.11,94.59,112.02,188.64,112.02,188.64-47.54,52.92-97.27,164.7-97.27,164.7,97.73-36.14,172.6-99.62,172.65-99.62,0,0,0,0,0,0,50.46,45.54,164.19,97.88,164.19,97.88-35.5-95.04-93.42-164.04-93.42-165.57,69.85-70.15,108.17-184.28,108.17-184.28-78.65,5.52-181.78,104.71-183.84,104.71-.01,0-.02,0-.03-.02C160.65,102.78,60.84,72.86,60.84,72.86h0Z"/>
    </g>
    <g>
      <path class="cls-1" d="M205.31,294.9c5.55-11.02,14.39-27.19,22.83-36.58l3.18-3.54-3.38-3.35c-.24-.24-21.77-21.81-29.96-45.25,10.29,4.24,27.95,12.85,43.49,26.99l.88,2.04h3.3c1.94,0,2.73-.67,5.32-2.9,16.72-14.38,30.84-23.42,42.13-26.98-4.68,11.21-14.37,31.44-28.2,45.33l-1.46,1.46v2.06c0,1.73.62,2.56,2.13,4.58,8.63,11.55,15.73,23.25,21.21,34.91-11.13-5.72-27.36-14.73-36.31-22.8l-1.38-1.25-3.73-.08-1.5,1.24c-1.97,1.63-17.47,14.23-38.57,24.12Z"/>
      <path class="cls-3" d="M283.1,215.22c-5.13,10.29-12.48,22.63-21.73,31.91l-2.91,2.93v4.13c0,3.39,1.45,5.33,3.12,7.57,4.87,6.52,9.24,13.08,13.09,19.65-7.79-4.5-15.63-9.56-20.83-14.25l-2.56-2.31-3.43-.24c-.2-.01-.43-.02-.68-.02-1.6,0-4.1.39-6.47,2.35-1.44,1.19-10.31,8.4-23.32,15.98,4.46-7.82,9.57-15.78,14.49-21.26l6.36-7.08-6.76-6.7c-5.01-4.96-15.87-17.47-23.45-31.55,8.88,4.56,19.49,11.07,29.29,19.82l1.74,4.07h6.62c3.8,0,5.8-1.73,8.58-4.11,11.84-10.19,21.33-16.74,28.86-20.88M190.67,198.14c5.15,28.5,33.75,56.83,33.75,56.83-14.32,15.94-29.3,49.62-29.3,49.62,29.44-10.89,52-30.01,52.02-30.01,0,0,0,0,0,0,15.2,13.72,49.47,29.49,49.47,29.49-10.7-28.63-28.15-49.42-28.15-49.88,21.04-21.14,32.59-55.52,32.59-55.52-23.7,1.66-54.77,31.55-55.39,31.55,0,0,0,0,0,0-24.91-23.05-54.98-32.07-54.98-32.07h0Z"/>
    </g>
  </g>
</svg>