<svg width="30" height="30" viewBox="0 0 30 30" fill="none" xmlns="http://www.w3.org/2000/svg">
<path d="M22.4708 11.8069L25.8693 14.9128C26.2799 15.2934 26.1627 15.5869 25.6058 15.5869H23.0568V23.7019C23.0568 24.2588 22.588 24.7566 22.0311 24.7566H17.6071V19.0725C17.6071 18.5156 17.1093 18.0178 16.5524 18.0178H13.769C13.2121 18.0178 12.7143 18.5156 12.7143 19.0725V24.7566H8.29021C7.73333 24.7566 7.23552 24.2588 7.23552 23.7019V15.5869H4.71552C4.15864 15.5869 4.04146 15.2934 4.45208 14.9128L14.384 5.88938C14.7946 5.50876 15.4977 5.50876 15.9365 5.88938L18.1921 7.91063V6.29907C18.1921 5.7422 18.6899 5.24438 19.2468 5.24438H21.4443C22.0011 5.24438 22.4699 5.7422 22.4699 6.29907L22.4708 11.8069Z" fill="#121113"/>
</svg>
