<svg width="30" height="30" viewBox="0 0 30 30" fill="none" xmlns="http://www.w3.org/2000/svg">
<g clip-path="url(#clip0_203_8)">
<path d="M25.3125 15.9815L20.625 14.1037V10.3462L25.3125 8.46748C25.8309 8.46748 26.25 8.88841 26.25 9.40685V15.0431C26.25 15.5615 25.8309 15.9815 25.3125 15.9815ZM16.4062 9.40591C14.0766 9.40591 12.1875 7.5131 12.1875 5.17873C12.1875 2.84435 14.0766 0.951538 16.4062 0.951538C18.7359 0.951538 20.625 2.84435 20.625 5.17873C20.625 7.51404 18.7359 9.40591 16.4062 9.40591ZM7.96875 9.40591C5.63906 9.40591 3.75 7.5131 3.75 5.17873C3.75 2.84435 5.63906 0.951538 7.96875 0.951538C10.2984 0.951538 12.1875 2.84435 12.1875 5.17873C12.1875 7.51404 10.2984 9.40591 7.96875 9.40591ZM19.6875 9.40591V17.8603H14.4544C14.4056 18.6403 14.0644 19.3125 13.5572 19.6931H14.0859L17.8256 28.1269H16.8938L15.6469 25.3144H13.1531V30H12.2184V25.3144H9.68531L8.41875 28.1269H7.48594L11.2847 19.6931H11.6381C11.1309 19.3125 10.7897 18.6403 10.7409 17.8603H4.6875V9.40591H19.6875ZM12.2175 19.9837C12.1791 19.9744 12.1434 19.9547 12.1059 19.9415L10.1072 24.3778H12.2175V19.9837ZM13.1522 19.9162V24.3787H15.2306L13.2375 19.8834C13.2103 19.8965 13.1822 19.905 13.1522 19.9162Z" fill="#121113"/>
</g>
<defs>
<clipPath id="clip0_203_8">
<rect width="30" height="30" fill="white"/>
</clipPath>
</defs>
</svg>
