<svg width="30" height="30" viewBox="0 0 30 30" fill="none" xmlns="http://www.w3.org/2000/svg">
<path d="M25 6.25H5C3.61929 6.25 2.5 7.36929 2.5 8.75V21.25C2.5 22.6307 3.61929 23.75 5 23.75H25C26.3807 23.75 27.5 22.6307 27.5 21.25V8.75C27.5 7.36929 26.3807 6.25 25 6.25Z" fill="#FFF8F0" stroke="#FFF8F0" stroke-width="2" stroke-linecap="round" stroke-linejoin="bevel"/>
<path d="M3.2251 6.98749L13.5126 17.2625C13.7448 17.4949 14.0205 17.6793 14.324 17.8051C14.6275 17.9309 14.9528 17.9957 15.2813 17.9957C15.6099 17.9957 15.9352 17.9309 16.2387 17.8051C16.5422 17.6793 16.8179 17.4949 17.0501 17.2625L27.0501 7.26249" stroke="#121113" stroke-width="2" stroke-linecap="square" stroke-linejoin="round"/>
</svg>
