<svg width="26" height="26" viewBox="0 0 26 26" fill="none" xmlns="http://www.w3.org/2000/svg">
<path fill-rule="evenodd" clip-rule="evenodd" d="M23.8334 13C23.8334 18.9831 18.9831 23.8334 13.0001 23.8334C7.01699 23.8334 2.16675 18.9831 2.16675 13C2.16675 7.01693 7.01699 2.16669 13.0001 2.16669C18.9831 2.16669 23.8334 7.01693 23.8334 13ZM16.2501 9.75002C16.2501 11.545 14.7951 13 13.0001 13C11.2051 13 9.75008 11.545 9.75008 9.75002C9.75008 7.9551 11.2051 6.50002 13.0001 6.50002C14.7951 6.50002 16.2501 7.9551 16.2501 9.75002ZM13.0001 22.2084C14.9327 22.2084 16.7264 21.613 18.2076 20.5955C18.8618 20.1461 19.1413 19.2901 18.761 18.5935C17.9726 17.1495 16.3478 16.25 13 16.25C9.65224 16.25 8.02755 17.1494 7.23907 18.5935C6.85872 19.2901 7.13827 20.146 7.79245 20.5954C9.27361 21.6128 11.0673 22.2084 13.0001 22.2084Z" fill="#121113"/>
</svg>
