<svg width="16" height="16" viewBox="0 0 16 16" fill="none" xmlns="http://www.w3.org/2000/svg">
<path d="M8 2V2.66667ZM8 13.3333V14ZM2.66667 8H2ZM4.20941 4.20941L3.66667 3.66667ZM11.7906 4.20941L12.3333 3.66667ZM4.20941 11.7933L3.66667 12.3334ZM11.7906 11.7933L12.3333 12.3334ZM14 8H13.3333ZM10.6667 8C10.6667 9.47273 9.47273 10.6667 8 10.6667C6.52724 10.6667 5.33333 9.47273 5.33333 8C5.33333 6.52724 6.52724 5.33333 8 5.33333C9.47273 5.33333 10.6667 6.52724 10.6667 8Z" fill="#121113"/>
<path d="M8 2V2.66667M8 13.3333V14M2.66667 8H2M4.20941 4.20941L3.66667 3.66667M11.7906 4.20941L12.3333 3.66667M4.20941 11.7933L3.66667 12.3334M11.7906 11.7933L12.3333 12.3334M14 8H13.3333M10.6667 8C10.6667 9.47273 9.47273 10.6667 8 10.6667C6.52724 10.6667 5.33333 9.47273 5.33333 8C5.33333 6.52724 6.52724 5.33333 8 5.33333C9.47273 5.33333 10.6667 6.52724 10.6667 8Z" stroke="#121113" stroke-linecap="round" stroke-linejoin="round"/>
</svg>
